<svg width="1446" height="621" viewBox="0 0 1446 621" fill="none" xmlns="http://www.w3.org/2000/svg">
<g clip-path="url(#clip0_2_542)">
<rect width="1446" height="621" fill="white"/>
<g opacity="0.55" clip-path="url(#clip1_2_542)" filter="url(#filter0_f_2_542)">
<path d="M1603.81 564.129C1611.64 357.219 1449.8 183.159 1242.33 175.355C1034.86 167.551 860.333 328.958 852.508 535.868C844.683 742.778 1006.53 916.838 1213.99 924.642C1421.46 932.446 1595.99 771.039 1603.81 564.129Z" fill="#7FADE3" style="mix-blend-mode:screen"/>
<g style="mix-blend-mode:multiply">
<path d="M1190.44 337.139C1225.06 320.178 1291.07 290.423 1353.62 277.271C1443.7 258.118 1466.04 263.436 1497.21 291.286C1497.52 290.51 1497.78 289.718 1498 288.914C1472.78 263.022 1443.95 240.897 1412.39 223.225C1347.53 221.68 1248.84 240.653 1164.53 287.908C1158.27 291.5 1153.65 297.368 1151.63 304.284C1149.61 311.199 1150.35 318.625 1153.7 325.006C1157.05 331.388 1162.74 336.229 1169.59 338.518C1176.44 340.806 1183.91 340.364 1190.44 337.283V337.139ZM985.486 443.399C1005.88 431.289 1035.64 414.148 1066.63 398.049C1073.08 394.711 1077.97 388.996 1080.27 382.119C1082.56 375.241 1082.08 367.742 1078.92 361.215L1078.56 360.533C1076.95 357.218 1074.69 354.254 1071.93 351.812C1069.16 349.37 1065.94 347.499 1062.45 346.306C1058.95 345.113 1055.26 344.622 1051.57 344.862C1047.89 345.102 1044.28 346.068 1040.98 347.704C1011.87 362.304 983.558 378.425 956.157 396C949.916 399.908 945.477 406.117 943.807 413.275C942.137 420.433 943.371 427.959 947.241 434.213C951.111 440.467 957.303 444.942 964.467 446.662C971.631 448.383 979.186 447.21 985.486 443.399ZM931.187 634.609L929.601 630.476C928.316 627.083 926.291 624.016 923.672 621.497C921.054 618.978 917.908 617.071 914.461 615.912C911.013 614.754 907.351 614.373 903.738 614.797C900.126 615.222 896.652 616.441 893.569 618.366C882.183 625.553 871.95 632.74 863.231 639.64C867.37 656.328 872.643 672.716 879.013 688.691C879.337 689.518 879.697 690.308 880.022 691.099C891.804 682.942 905.712 673.778 921.206 664.184C926.04 661.163 929.676 656.567 931.495 651.175C933.315 645.783 933.206 639.929 931.187 634.609ZM879.337 512.681C885.218 509.782 889.863 504.879 892.432 498.859C895.001 492.839 895.324 486.101 893.343 479.864C891.361 473.627 887.206 468.304 881.63 464.858C876.053 461.412 869.424 460.072 862.942 461.079C858.948 477.326 856.047 493.821 854.259 510.453C857.917 512.889 862.131 514.37 866.513 514.759C870.894 515.149 875.304 514.434 879.337 512.681ZM1188.49 431.396C1180.54 435.066 1174.38 441.733 1171.37 449.931C1168.35 458.129 1168.72 467.187 1172.4 475.111C1176.08 483.036 1182.77 489.178 1190.99 492.188C1199.21 495.197 1208.29 494.826 1216.23 491.156C1264.95 469.128 1365.91 425.359 1438.91 406.601C1516.63 386.621 1554.21 384.25 1574.14 403.547C1563.79 379.195 1550.87 356.007 1535.62 334.372C1486.47 325.819 1423.34 342.098 1373.48 357.047C1324.91 371.529 1235.94 409.117 1188.49 431.396ZM1462.33 498.128C1378.81 522.025 1253.13 577.185 1178.08 621.241C1171.41 625.547 1166.64 632.233 1164.76 639.928C1162.87 647.624 1164.01 655.747 1167.93 662.636C1171.85 669.524 1178.27 674.656 1185.86 676.982C1193.45 679.307 1201.65 678.649 1208.78 675.144C1256.19 649.558 1361.98 595.08 1444.42 571.759C1526.86 548.437 1582.14 531.368 1604.08 540.819C1603.59 520.737 1601.47 500.728 1597.74 480.987C1568.98 473.764 1523.37 480.591 1462.26 498.092L1462.33 498.128ZM1006.28 761.711C1001.87 755.292 995.128 750.843 987.481 749.313C979.835 747.782 971.892 749.291 965.345 753.518L928.845 776.912C940.258 791.934 952.81 806.062 966.39 819.171C977.956 811.984 992.405 802.785 997.413 799.551C1000.5 797.701 1003.2 795.255 1005.33 792.356C1007.46 789.457 1008.99 786.163 1009.84 782.667C1010.68 779.171 1010.81 775.543 1010.23 771.994C1009.65 768.445 1008.37 765.047 1006.46 761.999L1006.28 761.711ZM1277.99 770.515C1275.33 764.592 1270.42 759.962 1264.34 757.638C1258.27 755.315 1251.51 755.487 1245.56 758.118C1210.32 773.678 1175.09 791.178 1153.61 802.102C1147.99 804.961 1143.7 809.867 1141.61 815.802C1139.52 821.737 1139.81 828.245 1142.4 833.976C1143.74 836.955 1145.67 839.636 1148.06 841.864C1150.45 844.091 1153.26 845.82 1156.34 846.948C1159.41 848.076 1162.67 848.581 1165.94 848.433C1169.21 848.285 1172.42 847.487 1175.37 846.087C1197.25 835.737 1231.94 819.279 1266.28 802.965C1272.07 800.198 1276.54 795.286 1278.74 789.276C1280.94 783.267 1280.7 776.637 1278.06 770.803L1277.99 770.515ZM1078.99 492.881C1044.32 511.485 1010.91 532.323 978.965 555.264C973.196 559.459 969.144 565.593 967.555 572.534C965.965 579.476 966.946 586.756 970.317 593.032C972.268 596.678 974.965 599.875 978.232 602.416C981.499 604.958 985.265 606.787 989.286 607.786C993.307 608.786 997.493 608.932 1001.57 608.217C1005.66 607.501 1009.54 605.94 1012.98 603.633C1033.55 589.726 1065.62 569.028 1107.92 544.34C1114.29 540.289 1118.87 533.962 1120.72 526.656C1122.56 519.35 1121.54 511.615 1117.86 505.036C1114.18 498.457 1108.11 493.53 1100.9 491.264C1093.7 488.998 1085.9 489.563 1079.1 492.845L1078.99 492.881ZM1078.99 848.638C1074.7 848.652 1070.49 849.867 1066.86 852.145C1063.22 854.423 1060.3 857.673 1058.42 861.524C1056.54 865.376 1055.79 869.675 1056.24 873.934C1056.69 878.193 1058.33 882.24 1060.97 885.615C1067.24 888.706 1073.55 891.652 1079.93 894.383C1085.87 894.065 1091.45 891.459 1095.5 887.114C1099.55 882.769 1101.75 877.026 1101.64 871.094C1101.53 865.162 1099.11 859.506 1094.9 855.317C1090.69 851.127 1085.01 848.733 1079.06 848.638H1078.99ZM1080.68 686.93C1075.09 686.923 1069.61 688.573 1064.95 691.67C1060.3 694.766 1056.67 699.172 1054.52 704.328C1052.38 709.484 1051.81 715.159 1052.9 720.634C1053.99 726.109 1056.69 731.139 1060.65 735.086C1064.6 739.033 1069.65 741.721 1075.14 742.808C1080.63 743.895 1086.32 743.334 1091.49 741.194C1096.66 739.055 1101.07 735.433 1104.18 730.789C1107.28 726.145 1108.94 720.686 1108.93 715.103C1108.94 711.392 1108.21 707.714 1106.79 704.283C1105.37 700.852 1103.29 697.735 1100.66 695.11C1098.03 692.485 1094.9 690.405 1091.46 688.989C1088.02 687.573 1084.33 686.849 1080.61 686.859L1080.68 686.93ZM1536.92 636.945C1510.65 645.461 1385.58 691.063 1332.94 717.295C1326.68 720.407 1321.89 725.835 1319.59 732.421C1317.29 739.007 1317.66 746.23 1320.62 752.548C1320.62 752.548 1332.47 777.343 1356.22 765.448C1391.96 747.481 1479.81 710.001 1519.04 695.124C1549.92 683.409 1569.78 678.306 1580.3 680.75C1586.33 664.51 1591.25 647.882 1595.04 630.98C1578.35 626.38 1555.33 630.98 1536.92 636.945Z" fill="#7FADE3" style="mix-blend-mode:screen"/>
</g>
<path style="mix-blend-mode:screen" opacity="0.72" d="M1551.55 420.257C1528.64 362.939 1490.71 312.815 1441.72 275.134C1392.73 237.453 1334.49 213.6 1273.08 206.072C1211.68 198.545 1149.37 207.62 1092.69 232.347C1036.01 257.075 987.034 296.545 950.896 346.626C1018.62 303.981 1099.11 286.16 1178.57 296.216C1258.02 306.273 1331.5 343.582 1386.39 401.746C1441.29 459.911 1474.19 535.309 1479.45 615.015C1484.71 694.721 1462.01 773.771 1415.24 838.612C1483.34 795.707 1534.25 730.392 1559.15 653.985C1584.04 577.579 1581.35 494.893 1551.55 420.257Z" fill="#7FADE3"/>
<path d="M1527.4 620.594C1501.46 629.003 1377.84 674.066 1325.91 699.975C1319.73 703.048 1315 708.409 1312.72 714.915C1310.45 721.42 1310.81 728.554 1313.74 734.796C1313.74 734.796 1325.48 759.304 1348.9 747.553C1384.21 729.837 1470.98 692.788 1509.75 678.09C1564.3 657.392 1583.97 657.571 1579.51 683.157C1579.51 683.157 1612.69 673.491 1607.32 638.993C1601.95 604.495 1558.14 610.64 1527.4 620.594ZM1271.58 752.548C1268.95 746.698 1264.1 742.125 1258.1 739.828C1252.1 737.532 1245.43 737.7 1239.55 740.294C1204.7 755.638 1169.9 772.923 1148.71 783.739C1143.16 786.561 1138.91 791.404 1136.85 797.264C1134.78 803.125 1135.05 809.554 1137.61 815.218C1138.94 818.142 1140.83 820.775 1143.18 822.963C1145.54 825.151 1148.3 826.851 1151.32 827.964C1154.34 829.078 1157.54 829.582 1160.76 829.448C1163.97 829.314 1167.13 828.545 1170.04 827.185C1191.66 816.979 1225.93 800.737 1259.87 784.494C1265.58 781.759 1269.99 776.907 1272.17 770.972C1274.34 765.037 1274.1 758.49 1271.51 752.728L1271.58 752.548ZM1074.92 829.808C1070.43 829.808 1066.05 831.134 1062.33 833.617C1058.6 836.101 1055.69 839.631 1053.98 843.761C1052.26 847.892 1051.81 852.436 1052.69 856.821C1053.56 861.205 1055.72 865.233 1058.89 868.394C1062.06 871.555 1066.1 873.708 1070.5 874.58C1074.89 875.452 1079.45 875.005 1083.59 873.294C1087.73 871.583 1091.27 868.686 1093.76 864.969C1096.25 861.252 1097.58 856.882 1097.58 852.411C1097.59 849.448 1097.01 846.512 1095.87 843.772C1094.74 841.033 1093.08 838.542 1090.98 836.443C1088.88 834.344 1086.39 832.678 1083.65 831.54C1080.9 830.401 1077.96 829.813 1074.99 829.808H1074.92ZM1076.57 669.897C1071.05 669.897 1065.65 671.531 1061.06 674.591C1056.47 677.651 1052.89 682 1050.78 687.089C1048.66 692.178 1048.11 697.778 1049.19 703.18C1050.26 708.582 1052.92 713.545 1056.83 717.44C1060.73 721.334 1065.71 723.987 1071.13 725.061C1076.54 726.136 1082.16 725.584 1087.26 723.477C1092.36 721.369 1096.72 717.799 1099.79 713.219C1102.86 708.639 1104.5 703.255 1104.5 697.747C1104.5 690.373 1101.57 683.3 1096.35 678.08C1091.12 672.859 1084.04 669.916 1076.65 669.897H1076.57ZM778.952 699.256C774.392 699.256 769.933 700.605 766.141 703.132C762.349 705.659 759.393 709.251 757.647 713.453C755.902 717.656 755.445 722.28 756.335 726.741C757.225 731.203 759.421 735.301 762.646 738.517C765.871 741.733 769.98 743.924 774.454 744.811C778.927 745.699 783.564 745.243 787.777 743.502C791.991 741.762 795.593 738.814 798.126 735.032C800.66 731.25 802.013 726.803 802.013 722.255C802.013 716.167 799.593 710.329 795.284 706.018C790.975 701.707 785.128 699.275 779.025 699.256H778.952ZM877.752 497.84C882.738 495.797 886.999 492.316 889.988 487.841C892.977 483.367 894.558 478.104 894.529 472.728C894.499 467.352 892.86 462.107 889.821 457.666C886.783 453.225 882.483 449.79 877.474 447.803C872.466 445.815 866.975 445.364 861.708 446.509C856.441 447.653 851.636 450.341 847.911 454.227C844.185 458.113 841.709 463.02 840.798 468.319C839.888 473.618 840.585 479.068 842.801 483.969C844.178 487.173 846.175 490.073 848.679 492.505C851.182 494.937 854.142 496.852 857.389 498.141C860.636 499.429 864.106 500.066 867.6 500.015C871.095 499.963 874.544 499.224 877.752 497.84ZM1618.74 491.875C1604.15 455.078 1547.29 456.623 1453.54 483.43C1371.06 507.04 1246.9 561.481 1172.74 605.035C1165.65 609.047 1160.45 615.704 1158.28 623.542C1156.11 631.379 1157.15 639.755 1161.18 646.827C1165.2 653.899 1171.88 659.087 1179.73 661.25C1187.59 663.413 1195.99 662.374 1203.08 658.362C1249.92 633.208 1354.42 579.305 1435.88 556.235C1544.19 525.582 1605.45 505.746 1603.97 544.52C1604.08 544.52 1633.45 528.637 1618.85 491.875H1618.74ZM1003.25 744.031C998.897 737.684 992.228 733.286 984.668 731.776C977.108 730.265 969.255 731.761 962.787 735.946L919.26 763.831C916.187 765.715 913.529 768.201 911.449 771.139C909.368 774.078 907.908 777.407 907.156 780.926C906.405 784.444 906.378 788.078 907.078 791.607C907.777 795.136 909.188 798.487 911.225 801.455C915.693 807.531 922.324 811.668 929.756 813.018C937.188 814.368 944.856 812.828 951.184 808.714C960.372 802.857 987.216 785.931 994.422 781.296C997.506 779.475 1000.19 777.055 1002.32 774.179C1004.45 771.304 1005.98 768.031 1006.81 764.556C1007.65 761.081 1007.78 757.474 1007.19 753.948C1006.6 750.422 1005.31 747.05 1003.39 744.031H1003.25ZM1183.23 417.669C1175.64 421.452 1169.82 428.034 1167.01 436.022C1164.2 444.009 1164.62 452.773 1168.19 460.456C1171.75 468.139 1178.17 474.136 1186.09 477.177C1194.01 480.219 1202.81 480.064 1210.61 476.746C1258.75 454.97 1358.34 411.74 1430.59 393.197C1528.95 368.043 1561.99 371.169 1577.34 411.452C1577.34 411.452 1614.24 369.444 1565.06 336.492C1515.87 303.54 1429.83 324.993 1366.05 344.146C1317.95 358.412 1230.11 395.461 1183.23 417.49V417.669ZM1075.13 478.471C1040.89 496.853 1007.89 517.44 976.334 540.1C970.689 544.242 966.724 550.27 965.164 557.084C963.603 563.898 964.549 571.045 967.831 577.221C969.759 580.823 972.425 583.982 975.654 586.492C978.883 589.003 982.605 590.809 986.579 591.795C990.552 592.78 994.689 592.923 998.722 592.214C1002.75 591.505 1006.59 589.959 1009.99 587.678C1030.31 573.951 1061.98 553.504 1103.67 529.104C1107.02 527.23 1109.96 524.718 1112.34 521.709C1114.71 518.7 1116.47 515.255 1117.51 511.569C1118.55 507.884 1118.85 504.03 1118.39 500.229C1117.94 496.427 1116.74 492.752 1114.86 489.414C1112.98 486.075 1110.46 483.138 1107.44 480.77C1104.43 478.402 1100.97 476.651 1097.28 475.614C1093.58 474.578 1089.72 474.278 1085.91 474.732C1082.09 475.185 1078.41 476.382 1075.06 478.256L1075.13 478.471ZM929.133 618.618L927.583 614.557C926.317 611.184 924.312 608.134 921.715 605.631C919.117 603.128 915.992 601.234 912.568 600.088C909.144 598.942 905.506 598.571 901.921 599.004C898.335 599.437 894.891 600.663 891.84 602.591C871.914 615.278 853.088 629.606 835.558 645.425C831.005 649.588 828.21 655.324 827.742 661.467C827.273 667.61 829.166 673.701 833.036 678.502C836.907 683.304 842.464 686.458 848.58 687.322C854.697 688.187 860.913 686.698 865.969 683.157C879.769 673.311 897.965 660.914 919.188 647.833C924.05 644.841 927.703 640.24 929.508 634.833C931.312 629.427 931.154 623.56 929.061 618.259L929.133 618.618ZM1185.21 324.777C1219.4 308.031 1284.62 278.708 1346.42 265.628C1435.52 246.726 1457.47 251.973 1488.24 279.499C1488.24 279.499 1506.72 234.976 1449.36 218.122C1395.85 202.382 1266.21 216.433 1159.63 275.977C1153.48 279.547 1148.95 285.341 1146.98 292.156C1145.01 298.97 1145.75 306.28 1149.04 312.565C1152.34 318.85 1157.94 323.627 1164.67 325.901C1171.41 328.176 1178.76 327.773 1185.21 324.777ZM982.748 429.743C1002.89 417.777 1032.29 400.995 1062.92 384.932C1069.29 381.641 1074.12 375.997 1076.39 369.204C1078.65 362.411 1078.16 355.006 1075.03 348.566L1074.7 347.847C1073.11 344.575 1070.89 341.648 1068.15 339.238C1065.42 336.828 1062.24 334.981 1058.79 333.805C1055.34 332.629 1051.69 332.146 1048.05 332.386C1044.41 332.625 1040.85 333.581 1037.59 335.198C1008.85 349.627 980.887 365.544 953.815 382.884C948.257 386.985 944.445 393.016 943.131 399.785C941.818 406.554 943.1 413.568 946.723 419.44C950.346 425.311 956.047 429.614 962.698 431.495C969.349 433.376 976.465 432.7 982.64 429.6L982.748 429.743Z" fill="#7FADE3" style="mix-blend-mode:screen"/>
<path d="M884.273 475.417C885.119 475.055 885.937 474.635 886.724 474.159C888.663 473.033 890.125 471.241 890.834 469.117C891.544 466.994 891.453 464.685 890.579 462.624C887.79 456.17 882.546 451.084 876 448.483C869.453 445.882 862.139 445.979 855.664 448.753C854.825 449.141 854.007 449.573 853.214 450.047C851.274 451.173 849.813 452.965 849.103 455.088C848.393 457.212 848.484 459.52 849.359 461.582C850.739 464.778 852.738 467.671 855.24 470.096C857.742 472.521 860.699 474.43 863.941 475.715C867.184 477 870.648 477.635 874.137 477.584C877.626 477.532 881.07 476.796 884.273 475.417ZM990.063 406.458C1010.17 394.527 1039.14 377.709 1069.33 362.222C1072.38 360.649 1075.11 358.515 1077.37 355.933C1076.96 353.296 1076.15 350.739 1074.95 348.351L1074.63 347.632C1073.03 344.362 1070.81 341.439 1068.08 339.032C1065.34 336.624 1062.16 334.779 1058.71 333.604C1055.26 332.428 1051.61 331.945 1047.98 332.181C1044.34 332.418 1040.78 333.37 1037.52 334.983C1008.78 349.411 980.815 365.328 953.743 382.669C951.711 384.022 950.242 386.067 949.612 388.421C948.982 390.776 949.234 393.278 950.32 395.461C951.063 397.025 951.968 398.507 953.022 399.881C957.328 405.297 963.471 408.955 970.293 410.166C977.116 411.378 984.147 410.058 990.063 406.458ZM929.926 621.493C929.726 620.405 929.437 619.335 929.061 618.295L927.511 614.234C926.245 610.86 924.24 607.811 921.643 605.308C919.045 602.805 915.92 600.911 912.496 599.765C909.072 598.618 905.434 598.248 901.848 598.681C898.263 599.114 894.819 600.339 891.768 602.267C871.842 614.955 853.016 629.283 835.486 645.102L834.549 646.036V646.647C835.52 650.467 837.41 653.993 840.056 656.919C842.702 659.846 846.024 662.084 849.734 663.44C853.444 664.796 857.429 665.229 861.345 664.701C865.26 664.173 868.987 662.7 872.203 660.41C886.039 650.6 904.199 638.203 925.422 625.086C927.071 624.086 928.585 622.878 929.926 621.493ZM779.025 699.256H778.772C776.441 699.262 774.175 700.019 772.311 701.415C770.446 702.811 769.085 704.77 768.428 707.001C767.772 709.231 767.856 711.614 768.668 713.793C769.48 715.972 770.977 717.831 772.935 719.092C776.671 721.492 781.031 722.742 785.474 722.686H785.727C788.058 722.68 790.324 721.923 792.188 720.527C794.052 719.131 795.414 717.172 796.071 714.941C796.727 712.71 796.643 710.328 795.831 708.149C795.018 705.97 793.522 704.111 791.564 702.85C787.828 700.45 783.467 699.2 779.025 699.256ZM1192.34 301.635C1226.79 284.853 1291.47 255.89 1352.76 242.881C1437.14 224.914 1461.29 228.759 1489.68 252.548C1486.47 239.863 1476.31 225.74 1449.22 217.799C1395.71 202.059 1266.07 216.11 1159.48 275.654C1156.98 277.094 1155.14 279.45 1154.36 282.222C1153.57 284.993 1153.9 287.961 1155.27 290.495C1156.19 292.187 1157.29 293.778 1158.55 295.239C1162.69 299.872 1168.24 303.012 1174.36 304.169C1180.47 305.325 1186.79 304.435 1192.34 301.635ZM1183.23 417.49C1181.08 418.503 1179.17 419.956 1177.62 421.754C1176.07 423.552 1174.92 425.655 1174.24 427.926C1173.56 430.196 1173.37 432.585 1173.68 434.935C1173.98 437.285 1174.78 439.544 1176.02 441.566C1176.71 442.657 1177.46 443.712 1178.26 444.728C1182.98 450.431 1189.47 454.402 1196.7 456.016C1203.94 457.63 1211.51 456.794 1218.22 453.64C1266.71 431.756 1365.62 388.957 1437.25 370.522C1535.58 345.368 1568.62 348.494 1583.97 388.777L1584.26 388.454C1586.86 385.354 1588.67 381.674 1589.55 377.727C1590.42 373.78 1590.32 369.682 1589.27 365.779C1586.46 355.969 1579.47 345.727 1565.27 336.24C1516.09 303.288 1430.05 324.741 1366.27 343.895C1317.95 358.412 1230.11 395.461 1183.23 417.49ZM1527.4 620.594C1501.46 629.003 1377.84 674.066 1325.91 699.975C1324.95 700.457 1324.01 700.997 1323.1 701.592C1321.4 702.736 1320.16 704.453 1319.61 706.43C1319.06 708.407 1319.24 710.515 1320.11 712.372C1320.11 712.372 1331.86 736.88 1355.28 725.129C1390.59 707.449 1477.36 670.364 1516.13 655.667C1570.68 634.968 1590.35 635.148 1585.88 660.734C1592.51 658.513 1598.54 654.828 1603.54 649.953C1604.94 648.558 1605.99 646.858 1606.61 644.987C1607.24 643.116 1607.42 641.125 1607.14 639.173C1601.99 604.496 1558.14 610.64 1527.4 620.594ZM1271.58 752.548C1268.96 746.703 1264.13 742.129 1258.14 739.826C1252.15 737.523 1245.49 737.679 1239.62 740.258C1204.78 755.638 1169.9 772.923 1148.71 783.739C1147.91 784.134 1147.14 784.578 1146.4 785.069C1145.17 785.871 1144.25 787.08 1143.82 788.485C1143.39 789.89 1143.46 791.402 1144.03 792.759C1145.35 795.683 1147.24 798.315 1149.6 800.503C1151.95 802.691 1154.71 804.392 1157.73 805.505C1160.75 806.618 1163.96 807.123 1167.17 806.989C1170.39 806.855 1173.54 806.086 1176.45 804.725C1198.07 794.52 1232.3 778.241 1266.25 762.035C1268.76 760.816 1271.03 759.175 1272.98 757.183C1272.62 755.632 1272.11 754.117 1271.47 752.656L1271.58 752.548ZM1074.16 478.723C1040.21 496.946 1007.48 517.353 976.19 539.812C974.351 541.115 972.999 542.991 972.346 545.144C971.694 547.298 971.779 549.607 972.587 551.707C972.989 552.731 973.459 553.727 973.992 554.69C975.914 558.294 978.573 561.455 981.798 563.969C985.023 566.483 988.741 568.293 992.712 569.282C996.683 570.271 1000.82 570.418 1004.85 569.711C1008.88 569.005 1012.72 567.462 1016.11 565.183C1036.47 551.455 1068.11 531.008 1109.8 506.608C1112.79 504.857 1115.45 502.595 1117.65 499.925C1116.91 494.245 1114.49 488.914 1110.7 484.616C1106.17 479.687 1100.11 476.424 1093.49 475.355C1086.87 474.285 1080.09 475.472 1074.23 478.723H1074.16ZM1618.78 491.875C1604.19 455.078 1547.33 456.623 1453.58 483.43C1371.1 507.04 1246.93 561.481 1172.78 605.035C1169.82 606.762 1167.64 609.548 1166.67 612.825C1165.7 616.103 1166.01 619.626 1167.55 622.679C1168.54 624.63 1169.75 626.463 1171.16 628.141C1175.88 633.774 1182.43 637.579 1189.67 638.892C1196.91 640.205 1204.39 638.944 1210.79 635.328C1258.03 609.85 1361.73 556.558 1442.69 533.668C1551.04 503.015 1612.26 483.143 1610.82 521.953L1611.21 521.737C1615.41 519.175 1618.64 515.289 1620.37 510.693C1622.11 506.098 1622.26 501.056 1620.8 496.367C1620.01 495.037 1619.47 493.456 1618.85 491.875H1618.78ZM1003.25 744.031C998.897 737.684 992.228 733.286 984.668 731.776C977.108 730.265 969.255 731.761 962.787 735.946L919.26 763.831C917.26 765.188 915.838 767.238 915.272 769.584C914.705 771.929 915.035 774.401 916.197 776.517C916.666 777.343 917.17 778.169 917.711 778.96C922.162 785.053 928.786 789.212 936.219 790.582C943.652 791.953 951.329 790.43 957.67 786.327C966.858 780.505 993.702 763.58 1000.91 758.944C1003.21 757.442 1005.31 755.642 1007.14 753.59C1006.56 750.261 1005.33 747.076 1003.54 744.211L1003.25 744.031ZM1076.65 670.077H1076.39C1073.02 670.194 1069.78 671.38 1067.13 673.463C1064.48 675.546 1062.57 678.417 1061.67 681.66C1060.77 684.902 1060.93 688.346 1062.12 691.491C1063.32 694.637 1065.49 697.319 1068.32 699.148C1072.74 701.899 1077.85 703.355 1083.06 703.353H1083.31C1086.68 703.236 1089.93 702.05 1092.58 699.967C1095.23 697.884 1097.14 695.012 1098.04 691.77C1098.94 688.528 1098.78 685.084 1097.58 681.938C1096.39 678.793 1094.21 676.111 1091.38 674.281C1086.98 671.462 1081.88 669.942 1076.65 669.897V670.077ZM1074.99 829.988H1074.81C1072.58 830.056 1070.43 830.826 1068.67 832.187C1066.91 833.548 1065.62 835.43 1065 837.564C1064.37 839.699 1064.44 841.975 1065.2 844.068C1065.95 846.16 1067.35 847.961 1069.19 849.213C1072.83 851.56 1077.07 852.808 1081.4 852.806C1083.62 852.716 1085.75 851.934 1087.5 850.571C1089.24 849.207 1090.52 847.332 1091.14 845.208C1091.76 843.084 1091.7 840.82 1090.96 838.734C1090.22 836.648 1088.84 834.846 1087.02 833.581C1083.46 831.204 1079.28 829.895 1074.99 829.808V829.988Z" fill="#7FADE3" style="mix-blend-mode:screen"/>
</g>
</g>
<defs>
<filter id="filter0_f_2_542" x="706" y="125" width="966.924" height="850" filterUnits="userSpaceOnUse" color-interpolation-filters="sRGB">
<feFlood flood-opacity="0" result="BackgroundImageFix"/>
<feBlend mode="normal" in="SourceGraphic" in2="BackgroundImageFix" result="shape"/>
<feGaussianBlur stdDeviation="25" result="effect1_foregroundBlur_2_542"/>
</filter>
<clipPath id="clip0_2_542">
<rect width="1446" height="621" fill="white"/>
</clipPath>
<clipPath id="clip1_2_542">
<rect width="866.924" height="750" fill="white" transform="translate(756 175)"/>
</clipPath>
</defs>
</svg>
